<?xml version="1.0" standalone="no"?>
<!DOCTYPE svg PUBLIC "-//W3C//DTD SVG 20010904//EN"
 "http://www.w3.org/TR/2001/REC-SVG-20010904/DTD/svg10.dtd">
<svg version="1.0" xmlns="http://www.w3.org/2000/svg"
 width="512.000000pt" height="512.000000pt" viewBox="0 0 512.000000 512.000000"
 preserveAspectRatio="xMidYMid meet">
<metadata>
Created by potrace 1.14, written by Peter Selinger 2001-2017
</metadata>
<g transform="translate(0.000000,512.000000) scale(0.100000,-0.100000)"
fill="#000000" stroke="none">
<path d="M2379 5116 c-2 -2 -35 -6 -74 -9 -38 -4 -122 -15 -185 -26 -683 -117
-1297 -517 -1690 -1100 -174 -260 -319 -600 -374 -881 -44 -224 -51 -299 -50
-550 0 -221 5 -284 39 -475 12 -64 64 -265 87 -330 192 -558 558 -1026 1048
-1341 288 -186 646 -323 965 -370 22 -3 51 -8 65 -10 174 -29 566 -26 742 6
29 5 69 12 88 15 178 29 434 114 628 207 542 261 989 719 1226 1258 61 138 62
141 92 230 35 106 28 83 64 230 34 145 40 177 57 335 15 139 7 554 -12 607 -2
7 -6 31 -9 53 -4 33 -17 102 -41 207 -70 314 -262 706 -476 973 -97 121 -105
128 -153 114 -29 -8 -35 -5 -98 58 -58 58 -66 70 -61 94 10 50 -5 73 -89 140
-268 215 -564 370 -884 463 -114 33 -184 50 -249 61 -16 3 -41 7 -55 9 -113
21 -214 29 -391 32 -113 2 -208 2 -210 0z m391 -480 c30 -4 70 -9 87 -11 59
-7 106 -17 204 -41 479 -118 903 -407 1195 -812 41 -56 74 -104 74 -107 0 -3
12 -24 26 -47 82 -130 204 -428 233 -568 5 -25 14 -67 19 -95 10 -50 15 -81
28 -185 10 -81 11 -310 2 -393 -4 -39 -10 -90 -12 -112 -3 -22 -7 -47 -10 -55
-3 -8 -8 -33 -11 -54 -19 -133 -98 -364 -180 -527 -169 -339 -425 -622 -750
-832 -219 -141 -539 -260 -808 -301 -252 -39 -552 -24 -810 40 -587 146 -1086
545 -1360 1089 -102 203 -162 389 -202 630 -28 168 -25 444 6 643 52 333 209
685 428 962 154 194 399 403 601 512 36 20 85 47 110 60 37 20 201 90 220 94
3 0 14 4 25 8 122 46 319 88 480 102 44 4 81 8 83 9 5 5 272 -3 322 -9z"/>
<path d="M2537 4474 c-1 -1 -32 -4 -69 -8 -191 -18 -389 -141 -508 -316 -83
-122 -112 -220 -115 -388 l-3 -133 -63 -49 c-250 -192 -426 -472 -480 -765 -6
-33 -13 -67 -14 -75 -2 -8 -4 -33 -4 -55 -1 -39 -2 -41 -75 -78 -89 -46 -162
-101 -169 -128 -3 -11 -1 -33 5 -49 8 -26 5 -34 -30 -79 -22 -28 -46 -64 -53
-81 -11 -24 -20 -30 -46 -30 -37 0 -68 -28 -77 -68 -23 -106 -27 -137 -27
-217 0 -191 87 -391 224 -514 22 -20 45 -41 51 -46 45 -43 192 -112 287 -135
59 -14 208 -18 280 -7 92 14 214 66 294 124 l40 30 90 -38 c50 -21 106 -41
125 -44 18 -3 37 -8 42 -11 9 -6 32 -11 88 -19 19 -3 59 -9 88 -14 29 -4 103
-7 165 -6 169 4 305 31 462 95 l90 36 40 -29 c60 -44 180 -99 229 -104 38 -5
47 -2 66 20 21 24 27 25 123 25 94 -1 103 -2 120 -24 25 -32 66 -31 148 2 160
65 301 196 374 349 38 79 50 115 71 215 9 43 6 182 -6 240 -41 216 -188 408
-387 508 -34 18 -64 35 -66 39 -3 5 -7 35 -11 68 -28 269 -156 538 -351 741
-40 41 -135 122 -184 156 -22 16 -23 22 -25 145 -3 143 -17 204 -73 317 -93
187 -270 330 -468 378 -36 9 -193 26 -198 22z m97 -488 c91 -27 160 -111 172
-210 18 -144 -120 -284 -266 -270 -133 13 -225 114 -224 246 0 100 49 180 134
220 62 30 116 34 184 14z m-703 -583 c31 -62 136 -182 205 -234 64 -49 193
-107 274 -124 45 -10 255 -10 300 0 186 38 386 187 478 357 21 37 43 68 51 68
26 0 218 -203 274 -290 86 -135 152 -308 171 -451 l6 -46 -77 0 c-105 1 -173
-9 -255 -37 -282 -98 -473 -358 -483 -656 -5 -154 26 -272 104 -401 22 -35 36
-67 33 -71 -10 -11 -185 -66 -229 -73 -21 -3 -50 -8 -63 -11 -56 -11 -260 -10
-335 3 -87 14 -271 68 -279 81 -3 5 4 21 15 38 33 49 80 145 95 193 36 124 41
272 13 381 -85 332 -362 550 -701 553 -70 1 -98 5 -98 13 0 26 31 162 51 224
27 81 88 204 141 284 47 70 239 266 261 266 8 0 29 -30 48 -67z m-293 -1219
c87 -43 137 -125 135 -224 -3 -179 -185 -294 -346 -221 -88 40 -139 117 -143
217 -9 186 186 312 354 228z m2033 14 c51 -15 114 -69 142 -122 33 -63 31
-176 -6 -233 -36 -56 -64 -82 -116 -104 -164 -72 -344 46 -344 226 0 169 159
283 324 233z"/>
</g>
</svg>
